<svg width="80" height="80" fill="none" xmlns="http://www.w3.org/2000/svg"><path d="M35.313 0a7.04 7.04 0 00-7.032 7.031v2.5l4.688 2.344h4.687l4.688-2.344v-2.5A7.04 7.04 0 0035.312 0z" fill="#FF6A4D"/><path d="M42.344 9.531v-2.5A7.04 7.04 0 0035.312 0v11.875h2.344l4.688-2.344z" fill="#E64D2E"/><path d="M0 70.625C1.086 75.974 6.05 80 11.719 80c5.67 0 10.789-4.026 11.875-9.375l-5.092-2.344H3.254L0 70.625z" fill="#474F54"/><path d="M11.719 75.313a7.04 7.04 0 01-7.031-7.032 7.04 7.04 0 017.03-7.031c3.878 0 7.188 3.154 7.188 7.031s-3.31 7.031-7.187 7.031z" fill="#F2F9FF"/><path d="M23.594 28.438H9.375l-4.688 4.687v14.063l4.688 2.343h14.219l7.031-2.343V34.53l-2.344-1.406-4.687-4.688z" fill="#FF9100"/><path d="M4.688 23.75v9.375H28.28l2.344-1.213-2.344-1.13V23.75H4.688z" fill="#FFDF40"/><path d="M37.656 70.625H0v-2.344c0-9.06 7.502-16.406 16.563-16.406l3.906-2.344h21.875V66.72l-4.688 3.906z" fill="#FF6A4D"/><path d="M0 47.188h32.969v4.687H0v-4.688z" fill="#32393F"/><path d="M49.375 59.047v8.812l-2.344 2.766h-9.375v-18.75H32.97a4.701 4.701 0 01-4.688-4.688V35.47h14.063v7.03a4.701 4.701 0 014.687 4.688v9.374l2.344 2.485z" fill="#575F64"/><path d="M49.375 59.047v8.812l-2.344 2.766h-9.375v-18.75h-2.343V35.469h7.03V42.5a4.701 4.701 0 014.688 4.688v9.374l2.344 2.485z" fill="#474F54"/><path d="M42.344 33.125v-2.344a7.04 7.04 0 00-7.032-7.031 7.04 7.04 0 00-7.03 7.031v4.688a7.031 7.031 0 007.03 7.031H54.22a7.031 7.031 0 007.031-7.031v-2.344H42.344z" fill="#FF6A4D"/><path d="M61.25 35.469v-2.344H42.344v-2.344a7.04 7.04 0 00-7.032-7.031V42.5H54.22a7.031 7.031 0 007.031-7.031z" fill="#E64D2E"/><path d="M37.656 11.875H32.97l-4.688 2.344v2.344c0 3.877 3.154 7.187 7.032 7.187 3.877 0 7.03-3.31 7.03-7.188V14.22l-4.687-2.344z" fill="#FFE1BA"/><path d="M42.344 16.563v-2.344l-4.688-2.344h-2.343V23.75c3.877 0 7.03-3.31 7.03-7.188z" fill="#FFBFAB"/><path d="M35.313 9.531H28.28v4.688h18.75V9.53H35.313z" fill="#474F54"/><path d="M35.313 9.531H47.03v4.688H35.313V9.53z" fill="#32393F"/><path d="M67.71 47.712c-.26-1.825-.772-5.418-1.795-12.575l-9.353-4.356v18.75c0 3.698-3.185 7.032-7.187 7.032h-2.344v14.062h28.281L80 68.281v-4.687c0-7.498-5.173-14.035-12.29-15.882z" fill="#E64D2E"/><path d="M70.625 37.813h-7.031a7.04 7.04 0 01-7.032-7.032 7.04 7.04 0 017.032-7.031h7.031v14.063z" fill="#FF6A4D"/><path d="M68.986 56.634l-.682 2.604-3.961-1.946c-4.52 1.627-7.78 5.916-7.78 10.99C56.563 74.741 61.82 80 68.28 80 74.743 80 80 74.743 80 68.281c0-6.22-4.886-11.275-11.014-11.647z" fill="#32393F"/><path d="M68.281 61.25a7.04 7.04 0 00-7.031 7.031 7.04 7.04 0 007.031 7.031 7.04 7.04 0 007.031-7.03 7.04 7.04 0 00-7.03-7.032z" fill="#DFE7F4"/><path d="M70.602 67.95l-1.616-11.316c-.238-.015-.464-.072-.705-.072-1.388 0-2.702.285-3.938.73l1.617 11.321 4.642-.664z" fill="#C7CFE1"/></svg>